<svg xmlns="http://www.w3.org/2000/svg" width="30px" height="30px" enable-background="new 0 0 24 24" viewBox="0 0 24 24"><path fill="#303c42" d="M24,7.877c0-1.776-2.463-2.881-5-3.01V4.854C19,3.328,17.494,0,16,0c-0.522,0-1.119,0.18-1.75,0.371   C13.548,0.583,12.752,0.824,12,0.824s-1.548-0.241-2.25-0.453C9.119,0.18,8.522,0,8,0C6.506,0,5,3.329,5,4.854v0.013   c-2.537,0.129-5,1.234-5,3.01c0,1.241,1.322,2.778,4.115,3.827c-0.053,0.474-0.103,0.949-0.112,1.416C3.11,13.7,3,14.703,3,15.435   c0,0.965,0.889,3.127,2.15,3.478c0.013,0.032,0.025,0.065,0.04,0.1C5.735,20.377,7.183,24,12,24s6.265-3.623,6.81-4.987   c0.015-0.035,0.027-0.068,0.04-0.1C20.112,18.562,21,16.4,21,15.435c0-0.732-0.11-1.734-1.003-2.314   c-0.009-0.468-0.059-0.943-0.112-1.416C22.678,10.656,24,9.118,24,7.877z"/><path fill="#78909c" d="M18.002,7.466C17.999,7.481,17.611,9,12,9C6.422,9,6.006,7.5,6,7.5V6.905C6.917,7.479,8.667,8,12,8   c3.335,0,5.085-0.522,6.002-1.096L18.002,7.466z"/><path fill="#546e7a" d="M6,5c0-1.451,1.461-3.817,2-3.817c0.376,0,0.903,0.158,1.463,0.326C10.23,1.739,11.101,2,12,2   s1.77-0.261,2.537-0.492c0.56-0.167,1.087-0.326,1.463-0.326c0.539,0,2,2.366,2,3.817V5.47c-0.016,0.061-0.478,1.529-6,1.529   c-5.578,0-5.994-1.5-6-1.5V5z"/><path fill="#fff" d="M8,1.745c0.376,0,0.903,0.158,1.463,0.326   c0.768,0.23,1.638,0.492,2.537,0.492s1.77-0.261,2.537-0.492c0.56-0.167,1.087-0.326,1.463-0.326c0.531,0,1.951,2.293,1.992,3.749   c0.004-0.01,0.007-0.02,0.008-0.023V5c0-1.451-1.461-3.817-2-3.817c-0.376,0-0.903,0.158-1.463,0.326C13.77,1.739,12.899,2,12,2   s-1.77-0.261-2.537-0.492C8.903,1.341,8.376,1.182,8,1.182c-0.539,0-2,2.366-2,3.817v0.5c0,0,0.003,0.006,0.005,0.013   C6.036,4.058,7.467,1.745,8,1.745z" enable-background="new" opacity=".2"/><path fill="#fee8d7" d="M19,13.5c0,0.195,0.113,0.372,0.29,0.454C19.659,14.124,20,14.429,20,15.5   c0,0.764-0.872,2.5-1.5,2.5c-0.192,0-0.367,0.11-0.45,0.283c-0.047,0.096-0.102,0.23-0.167,0.395C17.361,19.971,16.142,23,12,23   s-5.361-3.029-5.883-4.322c-0.065-0.165-0.12-0.299-0.167-0.395C5.867,18.11,5.692,18,5.5,18C4.872,18,4,16.264,4,15.5   c0-1.071,0.341-1.376,0.71-1.546C4.887,13.872,5,13.695,5,13.5c0-0.455,0.031-0.918,0.077-1.382   c0.422,0.125,0.867,0.241,1.345,0.344C6.162,12.731,6,13.097,6,13.5V14c0,1.103,1.121,2,2.5,2c1.253,0,3-0.761,3-2v-0.5   c0-0.113-0.015-0.222-0.038-0.327c0.01-0.028,0.025-0.054,0.031-0.084C11.535,13.062,11.671,13,12,13s0.465,0.062,0.508,0.089   c0.005,0.03,0.02,0.056,0.031,0.084c-0.024,0.106-0.038,0.215-0.038,0.327V14c0,1.239,1.747,2,3,2c1.379,0,2.5-0.897,2.5-2v-0.5   c0-0.403-0.162-0.769-0.422-1.038c0.478-0.102,0.923-0.218,1.345-0.344C18.969,12.582,19,13.045,19,13.5z"/><path fill="#4d4d4d" d="M13.5 13.5c0-.276.225-.5.5-.5h2.5c.275 0 .5.224.5.5V14c0 .542-.687 1-1.5 1-.966 0-2-.587-2-1V13.5zM10.5 14c0 .413-1.034 1-2 1C7.687 15 7 14.542 7 14v-.5C7 13.224 7.225 13 7.5 13H10c.275 0 .5.224.5.5V14z"/><path fill="#546e7a" d="M12,12C3.607,12,1,9.068,1,8c0-0.99,1.82-1.857,4-1.976V7.5C5,7.917,5.338,10,12,10s7-2.083,7-2.5   V6.024C21.18,6.143,23,7.01,23,8C23,9.068,20.393,12,12,12z"/><linearGradient id="a" x1="10.196" x2="18.871" y1="19.998" y2="11.324" gradientTransform="matrix(1 0 0 -1 0 24)" gradientUnits="userSpaceOnUse"><stop offset="0" stop-opacity=".1"/><stop offset="1" stop-opacity="0"/></linearGradient><path fill="url(#a)" d="M23,8c0-0.99-1.82-1.857-4-1.976V7.5c0,0.417-0.338,2.5-7,2.5   c-3.92,0-5.643-0.721-6.403-1.399l3.237,3.237C9.787,11.939,10.832,12,12,12C20.393,12,23,9.068,23,8z"/><linearGradient id="b" x1="8.538" x2="18.749" y1="15.343" y2="5.132" gradientTransform="matrix(1 0 0 -1 0 24)" gradientUnits="userSpaceOnUse"><stop offset="0" stop-opacity=".1"/><stop offset="1" stop-opacity="0"/></linearGradient><path fill="url(#b)" d="M15.5,15c0.813,0,1.5-0.458,1.5-1v-0.5c0-0.276-0.225-0.5-0.5-0.5H14   c-0.275,0-0.5,0.224-0.5,0.5V14C13.5,14.413,14.534,15,15.5,15z M6.061,13.102c0.068-0.243,0.19-0.463,0.361-0.64   c-0.478-0.102-0.923-0.218-1.345-0.344L6.061,13.102z M19.29,13.954C19.113,13.872,19,13.695,19,13.5   c0-0.455-0.031-0.918-0.077-1.382c-0.422,0.125-0.867,0.241-1.345,0.344C17.838,12.732,18,13.097,18,13.5V14c0,1.103-1.121,2-2.5,2   c-1.253,0-3-0.761-3-2v-0.5c0-0.113,0.015-0.222,0.038-0.327c-0.01-0.028-0.025-0.054-0.031-0.084C12.465,13.062,12.329,13,12,13   s-0.465,0.062-0.508,0.089c-0.005,0.03-0.02,0.056-0.031,0.084c0.024,0.106,0.038,0.215,0.038,0.327V14   c0,1.103-1.384,1.824-2.572,1.969l6.241,6.241c1.683-0.988,2.36-2.657,2.713-3.533c0.065-0.165,0.12-0.299,0.167-0.395   C18.133,18.11,18.308,18,18.5,18c0.628,0,1.5-1.736,1.5-2.5C20,14.429,19.659,14.124,19.29,13.954z M10.5,14v-0.5   c0-0.276-0.225-0.5-0.5-0.5H7.5C7.225,13,7,13.224,7,13.5V14c0,0.017,0.006,0.032,0.008,0.048l0.846,0.846   C8.052,14.96,8.269,15,8.5,15C9.466,15,10.5,14.413,10.5,14z"/><linearGradient id="c" x1=".627" x2="21.198" y1="17.882" y2="8.29" gradientTransform="matrix(1 0 0 -1 0 24)" gradientUnits="userSpaceOnUse"><stop offset="0" stop-color="#fff" stop-opacity=".2"/><stop offset="1" stop-color="#fff" stop-opacity="0"/></linearGradient><path fill="url(#c)" d="M24,7.877c0-1.776-2.463-2.881-5-3.01V4.854C19,3.328,17.494,0,16,0   c-0.522,0-1.119,0.18-1.75,0.371C13.548,0.583,12.752,0.824,12,0.824s-1.548-0.241-2.25-0.453C9.119,0.18,8.522,0,8,0   C6.506,0,5,3.329,5,4.854v0.013c-2.537,0.129-5,1.234-5,3.01c0,1.241,1.322,2.778,4.115,3.827   c-0.053,0.474-0.103,0.949-0.112,1.416C3.11,13.7,3,14.703,3,15.435c0,0.965,0.889,3.127,2.15,3.478   c0.013,0.032,0.025,0.065,0.04,0.1C5.735,20.377,7.183,24,12,24s6.265-3.623,6.81-4.987c0.015-0.035,0.027-0.068,0.04-0.1   C20.112,18.562,21,16.4,21,15.435c0-0.732-0.11-1.734-1.003-2.314c-0.009-0.468-0.059-0.943-0.112-1.416   C22.678,10.656,24,9.118,24,7.877z"/></svg>