<svg xmlns="http://www.w3.org/2000/svg" width="30px" height="30px" viewBox="0 0 24 24"><path fill="#303c42" d="M24,8c0-1.76-2.46-2.86-5-3h0C19,3.49,17.49.18,16,.18a6.54,6.54,0,0,0-1.75.37A8.16,8.16,0,0,1,12,1,8.16,8.16,0,0,1,9.75.55,6.54,6.54,0,0,0,8,.18C6.51.18,5,3.49,5,5H5c-2.54.13-5,1.22-5,3,0,1.23,1.32,2.76,4.12,3.8-.05.47-.1.94-.11,1.41a2.54,2.54,0,0,0-1,2.3c0,1,.89,3.1,2.15,3.45l0,.1A6.93,6.93,0,0,0,12,24a6.93,6.93,0,0,0,6.81-4.95l0-.1C20.11,18.6,21,16.46,21,15.5a2.54,2.54,0,0,0-1-2.3c0-.46-.06-.94-.11-1.41C22.68,10.76,24,9.23,24,8ZM6,6.91C6.92,7.48,8.67,8,12,8s5.09-.52,6-1.1v.56S17.61,9,12,9,6,7.5,6,7.5ZM19,13.5a.5.5,0,0,0,.29.45c.37.17.71.48.71,1.55,0,.76-.87,2.5-1.5,2.5a.5.5,0,0,0-.45.28c0,.1-.1.23-.17.4C17.36,20,16.14,23,12,23s-5.36-3-5.88-4.32c-.07-.16-.12-.3-.17-.4A.5.5,0,0,0,5.5,18C4.87,18,4,16.26,4,15.5c0-1.07.34-1.38.71-1.55A.5.5,0,0,0,5,13.5c0-.46,0-.92.08-1.38.42.13.87.24,1.34.34a1.49,1.49,0,0,0-.42,1V14a2.29,2.29,0,0,0,2.5,2c1.25,0,3-.76,3-2v-.5a1.49,1.49,0,0,0,0-.33.49.49,0,0,0,0-.08A1,1,0,0,1,12,13a1,1,0,0,1,.51.09.49.49,0,0,0,0,.08,1.49,1.49,0,0,0,0,.33V14c0,1.24,1.75,2,3,2A2.29,2.29,0,0,0,18,14v-.5a1.49,1.49,0,0,0-.42-1c.48-.1.92-.22,1.34-.34C19,12.58,19,13,19,13.5Z"/></svg>