<svg xmlns="http://www.w3.org/2000/svg" enable-background="new 0 0 780 780" width="50px" height="50px" viewBox="0 0 780 780"><path fill="#fff" d="M286.1,253c-55.5-28.2-116.4-7.6-157.1,21.6C-24.3,384.7,19.9,722.4,78.6,736.4
		c36.6,8.7,61.2-174.8,61.2-174.8s-1.3,129.4,39.9,129.8s38.1-178.7,38.1-178.7s4.7,130.2,42.1,118.7
		c36.3-11.1,42.9-173.9,43.3-184.1c-0.3,8.4-3.6,123.5,32.8,128.6c19.4,2.7,33.6-51.3,34.1-104.9C370.8,411,380.7,301.1,286.1,253z"/><path fill="#9ffdff" d="M305.6,264.7c-49.5-14.8-100.8,4.2-136.6,29.9C39,387.9,51,645,93.5,729.5c28.2-33,46.3-167.9,46.3-167.9
		s0,1.1,0,3.2c0.1-1.1,0.2-2.2,0.3-3.2c1.6-17.1,8.4-19,14.5-17c6.2,2.1,10.5,7.9,11.2,14.4c2.3,22,10.2,87.6,27,125.2
		c27.3-33.4,24.9-171.5,24.9-171.5s0.1,2.3,0.3,6.1c0.4-18.3,7.5-21.6,14.3-20.5c7.3,1.2,12.7,7.3,13.7,14.7
		c2.7,20.9,10.8,75.5,24.6,109.7c26.8-36.1,32.1-166.4,32.5-175.5c-0.1,4-0.9,31.6,2.1,60.3c-1.4-19.5-2.4-37.7-2.2-52
		c0.3-18.3,6.8-22.5,13.2-22.2c7.2,0.4,12.8,6.3,13.4,13.4c1.7,21.8,7.6,81.7,21.6,118.6c11.2-18,18.4-56.3,18.8-94.5
		C370.7,415.5,379.3,317.2,305.6,264.7z"/><path fill="none" stroke="#000" stroke-linecap="round" stroke-linejoin="round" stroke-miterlimit="10" stroke-width="20" d="M370.2,470.9c0.6-59.9,10.6-169.9-84-218c-55.5-28.2-116.4-7.6-157.1,21.6C-24.3,384.7,19.9,722.4,78.6,736.4
		c36.6,8.7,61.2-174.8,61.2-174.8s-1.3,129.4,39.9,129.8s38.1-178.7,38.1-178.7s4.7,130.2,42.1,118.7s43.3-184.6,43.3-184.6
		s-5,123.8,32.8,129.1C355.4,578.6,369.6,524.6,370.2,470.9z"/><path fill="#fff" d="M659.7,274.6c-40.8-29.3-101.6-49.9-157.1-21.6c-94.6,48.1-84.7,158.1-84,218c0.6,53.6,14.7,107.6,34.1,104.9
		c36.4-5.1,33.1-120.2,32.8-128.6c0.4,10.2,7,173,43.3,184.1c37.4,11.5,42.1-118.7,42.1-118.7s-3.1,179.1,38.1,178.7
		s39.9-129.8,39.9-129.8s24.6,183.6,61.2,174.8C768.8,722.4,813,384.7,659.7,274.6z"/><path fill="#9ffdff" d="M659.7,274.6c-2.3-1.6-4.6-3.3-7.1-4.8c-34.3-13.8-74-14.7-115.1,6.2c-94.6,48.1-84.7,134.1-84,194
		c0.4,35.8,6.8,71.7,16.8,90.9c10.8-20.1,14.1-55.9,15-82.1c-1.8-13.1-3-24.8-2.3-33.2c1.2-14.1,9.5-11.6,16-10
		c7.5,1.8,13.4,13.1,13.8,20.9c1.7,32.8,9,139.5,33.6,168.3c21.3-26,24.4-112,24.4-112s-0.2,13.8,0.3,33.6
		c0.6-13.6,1.3-25.8,2.9-33.8c1-5,10.1-15.3,15.6-10.3c5.3,4.8,8.1,11.7,8.1,18.9c0,30.7,1.8,136.3,25.6,163.7
		c26.4-26.3,25.5-123.2,25.5-123.2s0.5,4,1.6,10.8c0.1-4,0.3-7.6,0.6-10.9c1.4-13.6,8.2-12.9,14.3-9.2c6.5,4,10.7,10.7,11.8,18.2
		c4.6,30.5,21.1,130.3,44.7,158.6C773.9,677.2,802.5,377.1,659.7,274.6z"/><path fill="none" stroke="#000" stroke-linecap="round" stroke-linejoin="round" stroke-miterlimit="10" stroke-width="20" d="M418.5,470.9c-0.6-59.9-10.6-169.9,84-218c55.5-28.2,116.4-7.6,157.1,21.6C813,384.7,768.8,722.4,710.1,736.4
		c-36.6,8.7-61.2-174.8-61.2-174.8s1.3,129.4-39.9,129.8s-38.1-178.7-38.1-178.7s-4.7,130.2-42.1,118.7s-43.3-184.6-43.3-184.6
		s5,123.8-32.8,129.1C433.2,578.6,419.1,524.6,418.5,470.9z"/><path fill="#ffd485" d="M395.3,45.1c-94,0-170.2,32.4-170.2,72.3s76.2,72.3,170.2,72.3s170.2-32.4,170.2-72.3S489.3,45.1,395.3,45.1z
		 M395.3,154.3c-70,0-126.8-16.5-126.8-36.9c0-20.4,56.8-36.9,126.8-36.9S522.1,97,522.1,117.4C522.1,137.8,465.3,154.3,395.3,154.3
		z"/><path fill="#ffaf1c" d="M245,137.4c0,6.2,1.8,12.2,5.3,17.9c30,20.6,83.7,34.4,144.9,34.4c94,0,170.2-32.4,170.2-72.3
		c0-6.2-1.8-12.2-5.3-17.9c-30-20.6-83.7-34.4-144.9-34.4C321.3,65.1,245,97.5,245,137.4z M522.1,117.4c0,20.4-56.8,36.9-126.8,36.9
		s-126.8-16.5-126.8-36.9c0-20.4,56.8-36.9,126.8-36.9S522.1,97,522.1,117.4z"/><path fill="none" stroke="#000" stroke-miterlimit="10" stroke-width="20" d="M395.3,45.1c-94,0-170.2,32.4-170.2,72.3s76.2,72.3,170.2,72.3s170.2-32.4,170.2-72.3S489.3,45.1,395.3,45.1z
		 M395.3,154.3c-70,0-126.8-16.5-126.8-36.9c0-20.4,56.8-36.9,126.8-36.9S522.1,97,522.1,117.4C522.1,137.8,465.3,154.3,395.3,154.3
		z"/></svg>